<svg width="180" height="52" viewBox="0 0 180 52" fill="none" xmlns="http://www.w3.org/2000/svg">
<g clip-path="url(#clip0)">
<path d="M180 19.5H0" stroke="#F5BD02" stroke-width="7"/>
<path d="M20.4761 6.79994H26.3441C28.3841 6.79994 29.8721 7.27994 30.8081 8.23994C31.7441 9.17594 32.2121 10.6279 32.2121 12.5959V14.1439C32.2121 16.7599 31.3481 18.4159 29.6201 19.1119V19.1839C30.5801 19.4719 31.2521 20.0599 31.6361 20.9479C32.0441 21.8359 32.2481 23.0239 32.2481 24.5119V28.9399C32.2481 29.6599 32.2721 30.2479 32.3201 30.7039C32.3681 31.1359 32.4881 31.5679 32.6801 31.9999H28.6481C28.5041 31.5919 28.4081 31.2079 28.3601 30.8479C28.3121 30.4879 28.2881 29.8399 28.2881 28.9039V24.2959C28.2881 23.1439 28.0961 22.3399 27.7121 21.8839C27.3521 21.4279 26.7161 21.1999 25.8041 21.1999H24.4361V31.9999H20.4761V6.79994ZM25.8761 17.5999C26.6681 17.5999 27.2561 17.3959 27.6401 16.9879C28.0481 16.5799 28.2521 15.8959 28.2521 14.9359V12.9919C28.2521 12.0799 28.0841 11.4199 27.7481 11.0119C27.4361 10.6039 26.9321 10.3999 26.2361 10.3999H24.4361V17.5999H25.8761ZM44.3196 32.3599C42.3756 32.3599 40.8876 31.8079 39.8556 30.7039C38.8236 29.5999 38.3076 28.0399 38.3076 26.0239V12.7759C38.3076 10.7599 38.8236 9.19994 39.8556 8.09594C40.8876 6.99194 42.3756 6.43994 44.3196 6.43994C46.2636 6.43994 47.7516 6.99194 48.7836 8.09594C49.8156 9.19994 50.3316 10.7599 50.3316 12.7759V26.0239C50.3316 28.0399 49.8156 29.5999 48.7836 30.7039C47.7516 31.8079 46.2636 32.3599 44.3196 32.3599ZM44.3196 28.7599C45.6876 28.7599 46.3716 27.9319 46.3716 26.2759V12.5239C46.3716 10.8679 45.6876 10.0399 44.3196 10.0399C42.9516 10.0399 42.2676 10.8679 42.2676 12.5239V26.2759C42.2676 27.9319 42.9516 28.7599 44.3196 28.7599ZM59.6129 21.2719L54.8249 6.79994H59.0369L61.7369 16.0519H61.8089L64.5089 6.79994H68.3609L63.5729 21.2719V31.9999H59.6129V21.2719ZM75.1525 6.79994H80.5165L84.6205 31.9999H80.6605L79.9405 26.9959V27.0679H75.4405L74.7205 31.9999H71.0485L75.1525 6.79994ZM79.4725 23.6479L77.7085 11.1919H77.6365L75.9085 23.6479H79.4725ZM90.1417 6.79994H94.1017V28.3999H100.618V31.9999H90.1417V6.79994ZM120.63 32.3599C118.71 32.3599 117.258 31.8199 116.274 30.7399C115.29 29.6359 114.798 28.0639 114.798 26.0239V24.5839H118.542V26.3119C118.542 27.9439 119.226 28.7599 120.594 28.7599C121.266 28.7599 121.77 28.5679 122.106 28.1839C122.466 27.7759 122.646 27.1279 122.646 26.2399C122.646 25.1839 122.406 24.2599 121.926 23.4679C121.446 22.6519 120.558 21.6799 119.262 20.5519C117.63 19.1119 116.49 17.8159 115.842 16.6639C115.194 15.4879 114.87 14.1679 114.87 12.7039C114.87 10.7119 115.374 9.17594 116.382 8.09594C117.39 6.99194 118.854 6.43994 120.774 6.43994C122.67 6.43994 124.098 6.99194 125.058 8.09594C126.042 9.17594 126.534 10.7359 126.534 12.7759V13.8199H122.79V12.5239C122.79 11.6599 122.622 11.0359 122.286 10.6519C121.95 10.2439 121.458 10.0399 120.81 10.0399C119.49 10.0399 118.83 10.8439 118.83 12.4519C118.83 13.3639 119.07 14.2159 119.55 15.0079C120.054 15.7999 120.954 16.7599 122.25 17.8879C123.906 19.3279 125.046 20.6359 125.67 21.8119C126.294 22.9879 126.606 24.3679 126.606 25.9519C126.606 28.0159 126.09 29.5999 125.058 30.7039C124.05 31.8079 122.574 32.3599 120.63 32.3599ZM132.477 6.79994H136.437V17.4199L141.477 6.79994H145.437L140.721 16.0519L145.509 31.9999H141.369L138.021 20.7679L136.437 23.9719V31.9999H132.477V6.79994ZM154.619 21.2719L149.831 6.79994H154.043L156.743 16.0519H156.815L159.515 6.79994H163.367L158.579 21.2719V31.9999H154.619V21.2719Z" fill="black"/>
<path d="M64.3939 44.5199V48.9999H63.6799V39.0949H66.2069C67.3502 39.0949 68.2042 39.3166 68.7689 39.7599C69.3336 40.1986 69.6159 40.8449 69.6159 41.6989C69.6159 42.0769 69.5506 42.4222 69.4199 42.7349C69.2892 43.0476 69.1002 43.3229 68.8529 43.5609C68.6102 43.7942 68.3162 43.9879 67.9709 44.1419C67.6256 44.2912 67.2359 44.3892 66.8019 44.4359C66.9139 44.5059 67.0142 44.5992 67.1029 44.7159L70.5119 48.9999H69.8889C69.8142 48.9999 69.7489 48.9859 69.6929 48.9579C69.6416 48.9299 69.5902 48.8832 69.5389 48.8179L66.3679 44.7999C66.2886 44.6972 66.2022 44.6249 66.1089 44.5829C66.0202 44.5409 65.8802 44.5199 65.6889 44.5199H64.3939ZM64.3939 43.9879H66.1159C66.5546 43.9879 66.9466 43.9366 67.2919 43.8339C67.6419 43.7266 67.9359 43.5749 68.1739 43.3789C68.4166 43.1829 68.6009 42.9472 68.7269 42.6719C68.8529 42.3966 68.9159 42.0862 68.9159 41.7409C68.9159 41.0362 68.6849 40.5136 68.2229 40.1729C67.7609 39.8322 67.0889 39.6619 66.2069 39.6619H64.3939V43.9879ZM79.6379 39.0949V39.6899H74.4229V43.6939H78.7629V44.2749H74.4229V48.4049H79.6379V48.9999H73.7019V39.0949H79.6379ZM88.1614 40.2989C88.1194 40.3782 88.0587 40.4179 87.9794 40.4179C87.9187 40.4179 87.8394 40.3759 87.7414 40.2919C87.6481 40.2032 87.5197 40.1076 87.3564 40.0049C87.1931 39.8976 86.9877 39.7996 86.7404 39.7109C86.4977 39.6222 86.1967 39.5779 85.8374 39.5779C85.4781 39.5779 85.1607 39.6292 84.8854 39.7319C84.6147 39.8346 84.3861 39.9746 84.1994 40.1519C84.0174 40.3292 83.8774 40.5346 83.7794 40.7679C83.6861 41.0012 83.6394 41.2462 83.6394 41.5029C83.6394 41.8389 83.7094 42.1166 83.8494 42.3359C83.9941 42.5552 84.1831 42.7419 84.4164 42.8959C84.6497 43.0499 84.9134 43.1806 85.2074 43.2879C85.5061 43.3906 85.8117 43.4932 86.1244 43.5959C86.4371 43.6986 86.7404 43.8129 87.0344 43.9389C87.3331 44.0602 87.5991 44.2142 87.8324 44.4009C88.0657 44.5876 88.2524 44.8186 88.3924 45.0939C88.5371 45.3646 88.6094 45.7029 88.6094 46.1089C88.6094 46.5242 88.5371 46.9162 88.3924 47.2849C88.2524 47.6489 88.0471 47.9662 87.7764 48.2369C87.5057 48.5076 87.1744 48.7222 86.7824 48.8809C86.3904 49.0349 85.9424 49.1119 85.4384 49.1119C84.7851 49.1119 84.2227 48.9976 83.7514 48.7689C83.2801 48.5356 82.8671 48.2182 82.5124 47.8169L82.7084 47.5089C82.7644 47.4389 82.8297 47.4039 82.9044 47.4039C82.9464 47.4039 83.0001 47.4319 83.0654 47.4879C83.1307 47.5439 83.2101 47.6139 83.3034 47.6979C83.3967 47.7772 83.5087 47.8659 83.6394 47.9639C83.7701 48.0572 83.9217 48.1459 84.0944 48.2299C84.2671 48.3092 84.4654 48.3769 84.6894 48.4329C84.9134 48.4889 85.1677 48.5169 85.4524 48.5169C85.8444 48.5169 86.1944 48.4586 86.5024 48.3419C86.8104 48.2206 87.0694 48.0572 87.2794 47.8519C87.4941 47.6466 87.6574 47.4039 87.7694 47.1239C87.8814 46.8392 87.9374 46.5359 87.9374 46.2139C87.9374 45.8639 87.8651 45.5769 87.7204 45.3529C87.5804 45.1242 87.3937 44.9352 87.1604 44.7859C86.9271 44.6319 86.6611 44.5036 86.3624 44.4009C86.0684 44.2982 85.7651 44.1979 85.4524 44.0999C85.1397 44.0019 84.8341 43.8922 84.5354 43.7709C84.2414 43.6496 83.9777 43.4956 83.7444 43.3089C83.5111 43.1176 83.3221 42.8819 83.1774 42.6019C83.0374 42.3172 82.9674 41.9626 82.9674 41.5379C82.9674 41.2066 83.0304 40.8869 83.1564 40.5789C83.2824 40.2709 83.4667 40.0002 83.7094 39.7669C83.9521 39.5289 84.2507 39.3399 84.6054 39.1999C84.9647 39.0552 85.3731 38.9829 85.8304 38.9829C86.3437 38.9829 86.8034 39.0646 87.2094 39.2279C87.6201 39.3912 87.9934 39.6409 88.3294 39.9769L88.1614 40.2989ZM100.922 44.0439C100.922 44.8092 100.808 45.5046 100.579 46.1299C100.35 46.7506 100.028 47.2826 99.6129 47.7259C99.1975 48.1646 98.7005 48.5052 98.1219 48.7479C97.5432 48.9859 96.9015 49.1049 96.1969 49.1049C95.5015 49.1049 94.8645 48.9859 94.2859 48.7479C93.7072 48.5052 93.2102 48.1646 92.7949 47.7259C92.3795 47.2826 92.0552 46.7506 91.8219 46.1299C91.5932 45.5046 91.4789 44.8092 91.4789 44.0439C91.4789 43.2832 91.5932 42.5926 91.8219 41.9719C92.0552 41.3466 92.3795 40.8146 92.7949 40.3759C93.2102 39.9326 93.7072 39.5896 94.2859 39.3469C94.8645 39.1042 95.5015 38.9829 96.1969 38.9829C96.9015 38.9829 97.5432 39.1042 98.1219 39.3469C98.7005 39.5849 99.1975 39.9256 99.6129 40.3689C100.028 40.8122 100.35 41.3466 100.579 41.9719C100.808 42.5926 100.922 43.2832 100.922 44.0439ZM100.18 44.0439C100.18 43.3532 100.084 42.7326 99.8929 42.1819C99.7015 41.6312 99.4309 41.1646 99.0809 40.7819C98.7355 40.3992 98.3179 40.1076 97.8279 39.9069C97.3379 39.7016 96.7942 39.5989 96.1969 39.5989C95.6089 39.5989 95.0699 39.7016 94.5799 39.9069C94.0945 40.1076 93.6745 40.3992 93.3199 40.7819C92.9699 41.1646 92.6969 41.6312 92.5009 42.1819C92.3095 42.7326 92.2139 43.3532 92.2139 44.0439C92.2139 44.7392 92.3095 45.3622 92.5009 45.9129C92.6969 46.4589 92.9699 46.9232 93.3199 47.3059C93.6745 47.6886 94.0945 47.9802 94.5799 48.1809C95.0699 48.3816 95.6089 48.4819 96.1969 48.4819C96.7942 48.4819 97.3379 48.3816 97.8279 48.1809C98.3179 47.9802 98.7355 47.6886 99.0809 47.3059C99.4309 46.9232 99.7015 46.4589 99.8929 45.9129C100.084 45.3622 100.18 44.7392 100.18 44.0439ZM105.582 44.5199V48.9999H104.868V39.0949H107.395C108.538 39.0949 109.392 39.3166 109.957 39.7599C110.522 40.1986 110.804 40.8449 110.804 41.6989C110.804 42.0769 110.739 42.4222 110.608 42.7349C110.477 43.0476 110.288 43.3229 110.041 43.5609C109.798 43.7942 109.504 43.9879 109.159 44.1419C108.814 44.2912 108.424 44.3892 107.99 44.4359C108.102 44.5059 108.202 44.5992 108.291 44.7159L111.7 48.9999H111.077C111.002 48.9999 110.937 48.9859 110.881 48.9579C110.83 48.9299 110.778 48.8832 110.727 48.8179L107.556 44.7999C107.477 44.6972 107.39 44.6249 107.297 44.5829C107.208 44.5409 107.068 44.5199 106.877 44.5199H105.582ZM105.582 43.9879H107.304C107.743 43.9879 108.135 43.9366 108.48 43.8339C108.83 43.7266 109.124 43.5749 109.362 43.3789C109.605 43.1829 109.789 42.9472 109.915 42.6719C110.041 42.3966 110.104 42.0862 110.104 41.7409C110.104 41.0362 109.873 40.5136 109.411 40.1729C108.949 39.8322 108.277 39.6619 107.395 39.6619H105.582V43.9879ZM121.043 39.0949V39.7039H117.564V48.9999H116.85V39.7039H113.35V39.0949H121.043Z" fill="black"/>
</g>
<defs>
<clipPath id="clip0">
<rect width="180" height="52" fill="white"/>
</clipPath>
</defs>
</svg>
